<?xml version="1.0" encoding="UTF-8" standalone="no"?>
<!DOCTYPE svg PUBLIC "-//W3C//DTD SVG 1.1//EN"
 "http://www.w3.org/Graphics/SVG/1.1/DTD/svg11.dtd">
<!-- Generated by graphviz version 14.1.1 (20251213.1925)
 -->
<!-- Title: Dependencies Pages: 1 -->
<svg width="354pt" height="933pt"
 viewBox="0.00 0.00 354.00 933.00" xmlns="http://www.w3.org/2000/svg" xmlns:xlink="http://www.w3.org/1999/xlink">
<g id="graph0" class="graph" transform="scale(1 1) rotate(0) translate(4 928.5)">
<title>Dependencies</title>
<polygon fill="white" stroke="none" points="-4,4 -4,-928.5 350.25,-928.5 350.25,4 -4,4"/>
<text xml:space="preserve" text-anchor="middle" x="173.12" y="-7.2" font-family="Times New Roman,serif" font-size="14.00">simple_rosetta &#45; Dependencies</text>
<!-- simple_rosetta -->
<g id="node1" class="node">
<title>simple_rosetta</title>
<polygon fill="lightblue" stroke="black" points="95.5,-420.5 0,-420.5 0,-384.5 95.5,-384.5 95.5,-420.5"/>
<text xml:space="preserve" text-anchor="middle" x="47.75" y="-397.45" font-family="Times New Roman,serif" font-size="14.00">simple_rosetta</text>
</g>
<!-- simple_cache -->
<g id="node2" class="node">
<title>simple_cache</title>
<polygon fill="lightblue" stroke="black" points="338,-924.5 247.75,-924.5 247.75,-888.5 338,-888.5 338,-924.5"/>
<text xml:space="preserve" text-anchor="middle" x="292.88" y="-901.45" font-family="Times New Roman,serif" font-size="14.00">simple_cache</text>
</g>
<!-- simple_rosetta&#45;&gt;simple_cache -->
<g id="edge1" class="edge">
<title>simple_rosetta&#45;&gt;simple_cache</title>
<path fill="none" stroke="black" stroke-dasharray="5,2" d="M12.25,-420.74C12.25,-511.09 12.25,-906.5 12.25,-906.5 12.25,-906.5 235.96,-906.5 235.96,-906.5"/>
<polygon fill="black" stroke="black" points="235.96,-910 245.96,-906.5 235.96,-903 235.96,-910"/>
</g>
<!-- simple_datetime -->
<g id="node3" class="node">
<title>simple_datetime</title>
<polygon fill="lightblue" stroke="black" points="346.25,-852.5 239.5,-852.5 239.5,-816.5 346.25,-816.5 346.25,-852.5"/>
<text xml:space="preserve" text-anchor="middle" x="292.88" y="-829.45" font-family="Times New Roman,serif" font-size="14.00">simple_datetime</text>
</g>
<!-- simple_rosetta&#45;&gt;simple_datetime -->
<g id="edge2" class="edge">
<title>simple_rosetta&#45;&gt;simple_datetime</title>
<path fill="none" stroke="black" stroke-dasharray="5,2" d="M24.25,-420.79C24.25,-503.01 24.25,-834.5 24.25,-834.5 24.25,-834.5 227.65,-834.5 227.65,-834.5"/>
<polygon fill="black" stroke="black" points="227.65,-838 237.65,-834.5 227.65,-831 227.65,-838"/>
</g>
<!-- simple_json -->
<g id="node4" class="node">
<title>simple_json</title>
<polygon fill="lightblue" stroke="black" points="333.88,-780.5 251.88,-780.5 251.88,-744.5 333.88,-744.5 333.88,-780.5"/>
<text xml:space="preserve" text-anchor="middle" x="292.88" y="-757.45" font-family="Times New Roman,serif" font-size="14.00">simple_json</text>
</g>
<!-- simple_rosetta&#45;&gt;simple_json -->
<g id="edge3" class="edge">
<title>simple_rosetta&#45;&gt;simple_json</title>
<path fill="none" stroke="black" stroke-dasharray="5,2" d="M36.25,-420.85C36.25,-494.21 36.25,-762.5 36.25,-762.5 36.25,-762.5 240.13,-762.5 240.13,-762.5"/>
<polygon fill="black" stroke="black" points="240.13,-766 250.13,-762.5 240.13,-759 240.13,-766"/>
</g>
<!-- simple_logger -->
<g id="node5" class="node">
<title>simple_logger</title>
<polygon fill="lightblue" stroke="black" points="339.88,-708.5 245.88,-708.5 245.88,-672.5 339.88,-672.5 339.88,-708.5"/>
<text xml:space="preserve" text-anchor="middle" x="292.88" y="-685.45" font-family="Times New Roman,serif" font-size="14.00">simple_logger</text>
</g>
<!-- simple_rosetta&#45;&gt;simple_logger -->
<g id="edge4" class="edge">
<title>simple_rosetta&#45;&gt;simple_logger</title>
<path fill="none" stroke="black" stroke-dasharray="5,2" d="M47.25,-420.95C47.25,-484.52 47.25,-690.5 47.25,-690.5 47.25,-690.5 234,-690.5 234,-690.5"/>
<polygon fill="black" stroke="black" points="234,-694 244,-690.5 234,-687 234,-694"/>
</g>
<!-- simple_process -->
<g id="node6" class="node">
<title>simple_process</title>
<polygon fill="lightblue" stroke="black" points="342.88,-636.5 242.88,-636.5 242.88,-600.5 342.88,-600.5 342.88,-636.5"/>
<text xml:space="preserve" text-anchor="middle" x="292.88" y="-613.45" font-family="Times New Roman,serif" font-size="14.00">simple_process</text>
</g>
<!-- simple_rosetta&#45;&gt;simple_process -->
<g id="edge5" class="edge">
<title>simple_rosetta&#45;&gt;simple_process</title>
<path fill="none" stroke="black" stroke-dasharray="5,2" d="M59.25,-420.92C59.25,-473.15 59.25,-618.5 59.25,-618.5 59.25,-618.5 230.96,-618.5 230.96,-618.5"/>
<polygon fill="black" stroke="black" points="230.96,-622 240.96,-618.5 230.96,-615 230.96,-622"/>
</g>
<!-- simple_regex -->
<g id="node7" class="node">
<title>simple_regex</title>
<polygon fill="lightblue" stroke="black" points="337.62,-564.5 248.12,-564.5 248.12,-528.5 337.62,-528.5 337.62,-564.5"/>
<text xml:space="preserve" text-anchor="middle" x="292.88" y="-541.45" font-family="Times New Roman,serif" font-size="14.00">simple_regex</text>
</g>
<!-- simple_rosetta&#45;&gt;simple_regex -->
<g id="edge6" class="edge">
<title>simple_rosetta&#45;&gt;simple_regex</title>
<path fill="none" stroke="black" stroke-dasharray="5,2" d="M71.25,-420.74C71.25,-459.49 71.25,-546.5 71.25,-546.5 71.25,-546.5 236.25,-546.5 236.25,-546.5"/>
<polygon fill="black" stroke="black" points="236.25,-550 246.25,-546.5 236.25,-543 236.25,-550"/>
</g>
<!-- simple_sql -->
<g id="node8" class="node">
<title>simple_sql</title>
<polygon fill="lightblue" stroke="black" points="330.5,-492.5 255.25,-492.5 255.25,-456.5 330.5,-456.5 330.5,-492.5"/>
<text xml:space="preserve" text-anchor="middle" x="292.88" y="-469.45" font-family="Times New Roman,serif" font-size="14.00">simple_sql</text>
</g>
<!-- simple_rosetta&#45;&gt;simple_sql -->
<g id="edge7" class="edge">
<title>simple_rosetta&#45;&gt;simple_sql</title>
<path fill="none" stroke="black" stroke-dasharray="5,2" d="M83.25,-420.67C83.25,-442 83.25,-474.5 83.25,-474.5 83.25,-474.5 243.4,-474.5 243.4,-474.5"/>
<polygon fill="black" stroke="black" points="243.4,-478 253.4,-474.5 243.4,-471 243.4,-478"/>
</g>
<!-- simple_testing -->
<g id="node9" class="node">
<title>simple_testing</title>
<polygon fill="lightblue" stroke="black" points="340.62,-420.5 245.12,-420.5 245.12,-384.5 340.62,-384.5 340.62,-420.5"/>
<text xml:space="preserve" text-anchor="middle" x="292.88" y="-397.45" font-family="Times New Roman,serif" font-size="14.00">simple_testing</text>
</g>
<!-- simple_rosetta&#45;&gt;simple_testing -->
<g id="edge8" class="edge">
<title>simple_rosetta&#45;&gt;simple_testing</title>
<path fill="none" stroke="black" stroke-dasharray="5,2" d="M95.89,-408.5C95.89,-408.5 233.34,-408.5 233.34,-408.5"/>
<polygon fill="black" stroke="black" points="233.34,-412 243.34,-408.5 233.34,-405 233.34,-412"/>
</g>
<!-- simple_rosetta&#45;&gt;simple_testing -->
<g id="edge11" class="edge">
<title>simple_rosetta&#45;&gt;simple_testing</title>
<path fill="none" stroke="black" stroke-dasharray="5,2" d="M95.89,-396.5C95.89,-396.5 233.34,-396.5 233.34,-396.5"/>
<polygon fill="black" stroke="black" points="233.34,-400 243.34,-396.5 233.34,-393 233.34,-400"/>
</g>
<!-- simple_file -->
<g id="node10" class="node">
<title>simple_file</title>
<polygon fill="lightblue" stroke="black" points="331.62,-348.5 254.12,-348.5 254.12,-312.5 331.62,-312.5 331.62,-348.5"/>
<text xml:space="preserve" text-anchor="middle" x="292.88" y="-325.45" font-family="Times New Roman,serif" font-size="14.00">simple_file</text>
</g>
<!-- simple_rosetta&#45;&gt;simple_file -->
<g id="edge9" class="edge">
<title>simple_rosetta&#45;&gt;simple_file</title>
<path fill="none" stroke="black" stroke-dasharray="5,2" d="M71.25,-384.02C71.25,-360.95 71.25,-324.5 71.25,-324.5 71.25,-324.5 242.25,-324.5 242.25,-324.5"/>
<polygon fill="black" stroke="black" points="242.25,-328 252.25,-324.5 242.25,-321 242.25,-328"/>
</g>
<!-- simple_rosetta&#45;&gt;simple_file -->
<g id="edge12" class="edge">
<title>simple_rosetta&#45;&gt;simple_file</title>
<path fill="none" stroke="black" stroke-dasharray="5,2" d="M83.25,-384.12C83.25,-364.59 83.25,-336.5 83.25,-336.5 83.25,-336.5 242.42,-336.5 242.42,-336.5"/>
<polygon fill="black" stroke="black" points="242.42,-340 252.42,-336.5 242.42,-333 242.42,-340"/>
</g>
<!-- simple_math -->
<g id="node11" class="node">
<title>simple_math</title>
<polygon fill="lightblue" stroke="black" points="336.5,-276.5 249.25,-276.5 249.25,-240.5 336.5,-240.5 336.5,-276.5"/>
<text xml:space="preserve" text-anchor="middle" x="292.88" y="-253.45" font-family="Times New Roman,serif" font-size="14.00">simple_math</text>
</g>
<!-- simple_rosetta&#45;&gt;simple_math -->
<g id="edge10" class="edge">
<title>simple_rosetta&#45;&gt;simple_math</title>
<path fill="none" stroke="black" stroke-dasharray="5,2" d="M59.25,-384.26C59.25,-345.51 59.25,-258.5 59.25,-258.5 59.25,-258.5 237.42,-258.5 237.42,-258.5"/>
<polygon fill="black" stroke="black" points="237.42,-262 247.42,-258.5 237.42,-255 237.42,-262"/>
</g>
<!-- base -->
<g id="node12" class="node">
<title>base</title>
<polygon fill="lightgray" stroke="black" points="319.88,-204.5 265.88,-204.5 265.88,-168.5 319.88,-168.5 319.88,-204.5"/>
<text xml:space="preserve" text-anchor="middle" x="292.88" y="-181.45" font-family="Times New Roman,serif" font-size="14.00">base</text>
</g>
<!-- simple_rosetta&#45;&gt;base -->
<g id="edge13" class="edge">
<title>simple_rosetta&#45;&gt;base</title>
<path fill="none" stroke="black" stroke-dasharray="5,2" d="M47.25,-384.08C47.25,-331.85 47.25,-186.5 47.25,-186.5 47.25,-186.5 254.14,-186.5 254.14,-186.5"/>
<polygon fill="black" stroke="black" points="254.14,-190 264.14,-186.5 254.14,-183 254.14,-190"/>
</g>
<!-- time -->
<g id="node13" class="node">
<title>time</title>
<polygon fill="lightgray" stroke="black" points="319.88,-132.5 265.88,-132.5 265.88,-96.5 319.88,-96.5 319.88,-132.5"/>
<text xml:space="preserve" text-anchor="middle" x="292.88" y="-109.45" font-family="Times New Roman,serif" font-size="14.00">time</text>
</g>
<!-- simple_rosetta&#45;&gt;time -->
<g id="edge14" class="edge">
<title>simple_rosetta&#45;&gt;time</title>
<path fill="none" stroke="black" stroke-dasharray="5,2" d="M36.25,-384.05C36.25,-320.48 36.25,-114.5 36.25,-114.5 36.25,-114.5 253.9,-114.5 253.9,-114.5"/>
<polygon fill="black" stroke="black" points="253.9,-118 263.9,-114.5 253.9,-111 253.9,-118"/>
</g>
<!-- testing -->
<g id="node14" class="node">
<title>testing</title>
<polygon fill="lightgray" stroke="black" points="319.88,-60.5 265.88,-60.5 265.88,-24.5 319.88,-24.5 319.88,-60.5"/>
<text xml:space="preserve" text-anchor="middle" x="292.88" y="-37.45" font-family="Times New Roman,serif" font-size="14.00">testing</text>
</g>
<!-- simple_rosetta&#45;&gt;testing -->
<g id="edge15" class="edge">
<title>simple_rosetta&#45;&gt;testing</title>
<path fill="none" stroke="black" stroke-dasharray="5,2" d="M12.25,-384.1C12.25,-309.88 12.25,-36.5 12.25,-36.5 12.25,-36.5 253.94,-36.5 253.94,-36.5"/>
<polygon fill="black" stroke="black" points="253.94,-40 263.94,-36.5 253.94,-33 253.94,-40"/>
</g>
<!-- simple_rosetta&#45;&gt;testing -->
<g id="edge16" class="edge">
<title>simple_rosetta&#45;&gt;testing</title>
<path fill="none" stroke="black" stroke-dasharray="5,2" d="M24.25,-384.46C24.25,-312.32 24.25,-48.5 24.25,-48.5 24.25,-48.5 253.88,-48.5 253.88,-48.5"/>
<polygon fill="black" stroke="black" points="253.88,-52 263.88,-48.5 253.88,-45 253.88,-52"/>
</g>
</g>
</svg>
